<svg width="40" height="40" viewBox="0 0 40 40" fill="none" xmlns="http://www.w3.org/2000/svg">
<path d="M12.2313 16.7842L16.7783 12.26L17.7317 11.2981L20.0052 9.03199L27.7383 16.7842L32.2364 12.26L20.0052 0L7.73322 12.26L12.2313 16.7842Z" fill="black"/>
<path d="M20.0122 15.4844L15.4948 20.0034L20.0122 24.5224L24.5297 20.0034L20.0122 15.4844Z" fill="black"/>
<path d="M27.7383 23.2485L20.0052 30.9844L17.2835 28.2618L16.7865 27.7645L12.2313 23.2485L7.73322 27.7482L20.0052 40.0001L32.2364 27.7482L27.7383 23.2485Z" fill="black"/>
<path d="M4.51742 15.4951L0 20.0142L4.51742 24.5332L9.03484 20.0142L4.51742 15.4951Z" fill="black"/>
<path d="M35.4826 15.5034L30.9651 20.0225L35.4826 24.5415L40 20.0225L35.4826 15.5034Z" fill="black"/>
</svg>
