<svg width="27" height="36" viewBox="0 0 27 36" fill="none" xmlns="http://www.w3.org/2000/svg">
<path d="M24.4278 11.3277C24.0435 7.44569 20.6897 6.15421 16.457 5.7904L16.4485 0.400902L13.2018 0.406035L13.2139 5.64848C12.3449 5.64794 11.4645 5.66651 10.5937 5.69081L10.5796 0.408274L7.3329 0.413408L7.34714 5.79334C6.63671 5.80974 5.94156 5.82231 5.25975 5.82339L0.66851 5.80964L0.681693 9.31415C0.681693 9.31415 3.10325 9.25683 3.05941 9.30846C3.49966 9.24868 3.94565 9.36602 4.29948 9.63472C4.65331 9.90343 4.88607 10.3015 4.94667 10.7417L4.96406 16.9085L4.98338 25.5026C4.97745 25.6565 4.94109 25.8077 4.8764 25.9474C4.8117 26.0871 4.71996 26.2127 4.60648 26.3167C4.49299 26.4208 4.36 26.5013 4.21521 26.5537C4.07041 26.6061 3.91667 26.6292 3.76287 26.6218C3.7744 26.6676 1.37559 26.6218 1.37559 26.6218L0.738176 30.5418L5.00662 30.5312L7.34044 30.5447L7.3567 35.9972L10.6034 35.9921L10.5949 30.6025C11.4925 30.6202 12.3634 30.6284 13.2076 30.6271L13.237 35.9382L16.4836 35.9331L16.4789 30.4939C21.9825 30.1644 25.8438 28.7622 26.3035 23.5878C26.6866 19.4314 24.7222 17.5629 21.587 16.8173C23.4858 15.8441 24.6729 14.1405 24.3876 11.2972L24.4278 11.3277ZM19.8665 22.983C19.8729 27.0413 12.9109 26.6093 10.6879 26.6166L10.6669 19.4032C12.8899 19.3959 19.8483 18.7165 19.8665 22.983ZM18.3225 12.8156C18.3284 16.5168 12.5142 16.0963 10.6636 16.0992L10.6418 9.56003C12.4981 9.54755 18.3145 8.9444 18.3206 12.808L18.3225 12.8156Z" fill="white"/>
</svg>
