<svg width="39" height="53" viewBox="0 0 39 53" fill="none" xmlns="http://www.w3.org/2000/svg">
<path d="M36.0371 16.1879C35.4683 10.4419 30.5043 8.53036 24.2393 7.99187L24.2267 0.0147099L19.4211 0.0223089L19.4391 7.78181C18.1529 7.78101 16.8498 7.8085 15.5608 7.84446L15.54 0.0256229L10.7344 0.0332218L10.7555 7.99622C9.70398 8.0205 8.67506 8.0391 7.6659 8.0407L0.870267 8.02035L0.889779 13.2075C0.889779 13.2075 4.47401 13.1226 4.40911 13.1991C5.06074 13.1106 5.72087 13.2843 6.24458 13.682C6.76829 14.0797 7.1128 14.6689 7.20251 15.3204L7.22825 24.4481L7.25684 37.1686C7.24806 37.3963 7.19424 37.62 7.09849 37.8269C7.00274 38.0337 6.86695 38.2195 6.69897 38.3735C6.53099 38.5275 6.33416 38.6468 6.11984 38.7243C5.90552 38.8018 5.67796 38.836 5.45032 38.8251C5.46739 38.8929 1.91683 38.825 1.91683 38.825L0.973381 44.6271L7.29123 44.6115L10.7456 44.6314L10.7697 52.7019L15.5752 52.6943L15.5626 44.7171C16.8912 44.7433 18.1803 44.7554 19.4297 44.7534L19.4732 52.6146L24.2787 52.607L24.2717 44.5563C32.4177 44.0685 38.133 41.9931 38.8135 34.3343C39.3804 28.1823 36.4729 25.4167 31.8324 24.3131C34.6428 22.8726 36.3999 20.3511 35.9777 16.1427L36.0371 16.1879ZM29.2858 33.4391C29.2953 39.446 18.9906 38.8065 15.7002 38.8174L15.6692 28.1406C18.9596 28.1298 29.2588 27.1241 29.2858 33.4391ZM27.0005 18.3901C27.0092 23.8684 18.4035 23.246 15.6643 23.2503L15.6321 13.5714C18.3797 13.5529 26.9887 12.6602 26.9977 18.3788L27.0005 18.3901Z" fill="#1F1F1F"/>
</svg>
