<svg width="133" height="24" viewBox="0 0 133 24" fill="none" xmlns="http://www.w3.org/2000/svg">
<path d="M11.9685 0.976562C12.4724 0.976562 12.9029 1.15504 13.2598 1.512C13.6168 1.86895 13.7953 2.2994 13.7953 2.80333V6.48837C13.7953 6.99231 13.6168 7.42276 13.2598 7.77971C12.9029 8.13667 12.4724 8.31515 11.9685 8.31515H11.685C11.1811 8.31515 10.7507 8.13667 10.3937 7.77971C10.0367 7.42276 9.85827 6.99231 9.85827 6.48837C9.85827 5.98444 9.67979 5.55399 9.32283 5.19703C8.96588 4.84008 8.53543 4.6616 8.0315 4.6616H5.79528C5.27034 4.6616 4.8294 4.84008 4.47244 5.19703C4.11549 5.55399 3.93701 5.98444 3.93701 6.48837V17.512C3.93701 18.0159 4.11549 18.4464 4.47244 18.8033C4.8294 19.1603 5.27034 19.3388 5.79528 19.3388H8.0315C8.53543 19.3388 8.96588 19.1603 9.32283 18.8033C9.67979 18.4464 9.85827 18.0159 9.85827 17.512C9.85827 17.0081 10.0367 16.5776 10.3937 16.2207C10.7507 15.8637 11.1811 15.6852 11.685 15.6852H11.9685C12.4724 15.6852 12.9029 15.8637 13.2598 16.2207C13.6168 16.5776 13.7953 17.0081 13.7953 17.512V21.197C13.7953 21.701 13.6168 22.1314 13.2598 22.4884C12.9029 22.8453 12.4724 23.0238 11.9685 23.0238H1.82677C1.32283 23.0238 0.892388 22.8453 0.535433 22.4884C0.178478 22.1314 0 21.701 0 21.197V2.80333C0 2.2994 0.178478 1.86895 0.535433 1.512C0.892388 1.15504 1.32283 0.976562 1.82677 0.976562H11.9685Z" fill="black"/>
<path d="M23.8049 8.31515C24.3089 8.31515 24.7393 8.49362 25.0963 8.85058C25.4532 9.20753 25.6317 9.63798 25.6317 10.1419V10.1734C25.6317 10.6774 25.4532 11.1078 25.0963 11.4648C24.7393 11.8217 24.3089 12.0002 23.8049 12.0002H21.5372C21.0333 12.0002 20.6028 12.1787 20.2459 12.5356C19.8889 12.8926 19.7104 13.323 19.7104 13.827V21.197C19.7104 21.701 19.532 22.1314 19.175 22.4884C18.8181 22.8453 18.3876 23.0238 17.8837 23.0238H17.6002C17.0963 23.0238 16.6658 22.8453 16.3089 22.4884C15.9519 22.1314 15.7734 21.701 15.7734 21.197V6.48837C15.7734 5.98444 15.9519 5.55399 16.3089 5.19703C16.6658 4.84008 17.0963 4.6616 17.6002 4.6616H17.8837C18.3876 4.6616 18.8181 4.84008 19.175 5.19703C19.532 5.55399 19.7104 5.98444 19.7104 6.48837C19.7104 6.99231 19.8889 7.42276 20.2459 7.77971C20.6028 8.13667 21.0333 8.31515 21.5372 8.31515H23.8049Z" fill="black"/>
<path d="M39.5544 4.6616C40.0584 4.6616 40.4888 4.84008 40.8458 5.19703C41.2027 5.55399 41.3812 5.98444 41.3812 6.48837V13.827C41.3812 14.3519 41.2027 14.7928 40.8458 15.1498C40.4888 15.5067 40.0584 15.6852 39.5544 15.6852H38.2946C37.7907 15.6852 37.3602 15.8637 37.0033 16.2207C36.6463 16.5776 36.4678 17.0081 36.4678 17.512V21.197C36.4678 21.701 36.2894 22.1314 35.9324 22.4884C35.5754 22.8453 35.1345 23.0238 34.6096 23.0238H34.3576C33.8537 23.0238 33.4232 22.8453 33.0663 22.4884C32.7093 22.1314 32.5308 21.701 32.5308 21.197V17.512C32.5308 17.0081 32.3418 16.5776 31.9639 16.2207C31.6069 15.8637 31.1765 15.6852 30.6726 15.6852H29.4127C28.9088 15.6852 28.4783 15.5067 28.1214 15.1498C27.7644 14.7928 27.5859 14.3519 27.5859 13.827V6.48837C27.5859 5.98444 27.7644 5.55399 28.1214 5.19703C28.4783 4.84008 28.9088 4.6616 29.4127 4.6616H29.6962C30.2001 4.6616 30.6306 4.84008 30.9875 5.19703C31.3445 5.55399 31.5229 5.98444 31.5229 6.48837V10.1734C31.5229 10.6774 31.7014 11.1078 32.0584 11.4648C32.4153 11.8217 32.8563 12.0002 33.3812 12.0002H35.6174C36.1214 12.0002 36.5518 11.8217 36.9088 11.4648C37.2657 11.1078 37.4442 10.6774 37.4442 10.1734V6.48837C37.4442 5.98444 37.6227 5.55399 37.9796 5.19703C38.3366 4.84008 38.767 4.6616 39.271 4.6616H39.5544Z" fill="black"/>
<path d="M43.3594 6.48837C43.3594 5.98444 43.5379 5.55399 43.8948 5.19703C44.2518 4.84008 44.6822 4.6616 45.1861 4.6616H55.3279C55.8318 4.6616 56.2623 4.84008 56.6192 5.19703C56.9762 5.55399 57.1547 5.98444 57.1547 6.48837V13.827C57.1547 14.3309 56.9762 14.7718 56.6192 15.1498C56.2623 15.5067 55.8318 15.6852 55.3279 15.6852H49.1547C48.6297 15.6852 48.1888 15.8637 47.8318 16.2207C47.4749 16.5776 47.2964 17.0081 47.2964 17.512V21.197C47.2964 21.701 47.1179 22.1314 46.7609 22.4884C46.404 22.8453 45.9735 23.0238 45.4696 23.0238H45.1861C44.6822 23.0238 44.2518 22.8453 43.8948 22.4884C43.5379 22.1314 43.3594 21.701 43.3594 21.197V6.48837ZM53.2176 10.1734C53.2176 9.64848 53.0392 9.20753 52.6822 8.85058C52.3253 8.49362 51.8948 8.31515 51.3909 8.31515H49.1547C48.6297 8.31515 48.1888 8.49362 47.8318 8.85058C47.4749 9.20753 47.2964 9.64848 47.2964 10.1734C47.2964 10.6774 47.4749 11.1078 47.8318 11.4648C48.1888 11.8217 48.6297 12.0002 49.1547 12.0002H51.3909C51.8948 12.0002 52.3253 11.8217 52.6822 11.4648C53.0392 11.1078 53.2176 10.6774 53.2176 10.1734Z" fill="black"/>
<path d="M68.9911 10.1419C68.9911 10.6669 68.8126 11.1078 68.4557 11.4648C68.0987 11.8217 67.6682 12.0002 67.1643 12.0002H64.8966C64.3927 12.0002 63.9622 12.1787 63.6053 12.5356C63.2483 12.8926 63.0698 13.323 63.0698 13.827V17.512C63.0698 18.0159 63.2483 18.4464 63.6053 18.8033C63.9622 19.1603 64.3927 19.3388 64.8966 19.3388H67.1328C67.6367 19.3388 68.0672 19.5172 68.4241 19.8742C68.7811 20.2312 68.9596 20.6616 68.9596 21.1655V21.197C68.9596 21.701 68.7811 22.1314 68.4241 22.4884C68.0672 22.8453 67.6367 23.0238 67.1328 23.0238H60.9596C60.4556 23.0238 60.0252 22.8453 59.6682 22.4884C59.3113 22.1314 59.1328 21.701 59.1328 21.197V6.48837C59.1328 5.98444 59.3113 5.55399 59.6682 5.19703C60.0252 4.84008 60.4556 4.6616 60.9596 4.6616H61.243C61.747 4.6616 62.1774 4.84008 62.5344 5.19703C62.8913 5.55399 63.0698 5.98444 63.0698 6.48837C63.0698 6.99231 63.2483 7.42276 63.6053 7.77971C63.9622 8.13667 64.3927 8.31515 64.8966 8.31515H67.1643C67.6682 8.31515 68.0987 8.49362 68.4557 8.85058C68.8126 9.20753 68.9911 9.63798 68.9911 10.1419Z" fill="black"/>
<path d="M80.9296 4.6616C81.4335 4.6616 81.8639 4.84008 82.2209 5.19703C82.5989 5.55399 82.7878 5.98444 82.7878 6.48837V21.197C82.7878 21.701 82.5989 22.1314 82.2209 22.4884C81.8639 22.8453 81.4335 23.0238 80.9296 23.0238H72.7721C72.2682 23.0238 71.8377 22.8453 71.4807 22.4884C71.1238 22.1314 70.9453 21.701 70.9453 21.197V6.48837C70.9453 5.98444 71.1238 5.55399 71.4807 5.19703C71.8377 4.84008 72.2682 4.6616 72.7721 4.6616H80.9296ZM76.9926 19.3388C77.4965 19.3388 77.9269 19.1603 78.2839 18.8033C78.6409 18.4464 78.8193 18.0159 78.8193 17.512V10.1734C78.8193 9.64848 78.6409 9.20753 78.2839 8.85058C77.9269 8.49362 77.4965 8.31515 76.9926 8.31515H76.7406C76.2157 8.31515 75.7747 8.49362 75.4178 8.85058C75.0608 9.20753 74.8823 9.64848 74.8823 10.1734V17.512C74.8823 18.0159 75.0608 18.4464 75.4178 18.8033C75.7747 19.1603 76.2157 19.3388 76.7406 19.3388H76.9926Z" fill="black"/>
<path d="M110.515 0.976562C111.019 0.976562 111.449 1.15504 111.806 1.512C112.163 1.86895 112.342 2.2994 112.342 2.80333V21.197C112.342 21.701 112.163 22.1314 111.806 22.4884C111.449 22.8453 111.019 23.0238 110.515 23.0238H110.231C109.727 23.0238 109.297 22.8453 108.94 22.4884C108.583 22.1314 108.405 21.701 108.405 21.197V6.48837C108.405 5.98444 108.226 5.55399 107.869 5.19703C107.512 4.84008 107.071 4.6616 106.546 4.6616H106.294C105.79 4.6616 105.36 4.84008 105.003 5.19703C104.646 5.55399 104.468 5.98444 104.468 6.48837V21.197C104.468 21.701 104.279 22.1314 103.901 22.4884C103.544 22.8453 103.113 23.0238 102.609 23.0238H102.357C101.853 23.0238 101.412 22.8453 101.034 22.4884C100.677 22.1314 100.499 21.701 100.499 21.197V6.48837C100.499 5.98444 100.321 5.55399 99.9636 5.19703C99.6066 4.84008 99.1762 4.6616 98.6722 4.6616H98.4203C97.8953 4.6616 97.4544 4.84008 97.0974 5.19703C96.7405 5.55399 96.562 5.98444 96.562 6.48837V21.197C96.562 21.701 96.3835 22.1314 96.0266 22.4884C95.6696 22.8453 95.2392 23.0238 94.7352 23.0238H94.4518C93.9478 23.0238 93.5174 22.8453 93.1604 22.4884C92.8035 22.1314 92.625 21.701 92.625 21.197V2.80333C92.625 2.2994 92.8035 1.86895 93.1604 1.512C93.5174 1.15504 93.9478 0.976562 94.4518 0.976562H100.656C101.16 0.976562 101.591 1.15504 101.948 1.512C102.305 1.86895 102.483 2.2994 102.483 2.80333C102.483 2.2994 102.662 1.86895 103.019 1.512C103.376 1.15504 103.806 0.976562 104.31 0.976562H110.515Z" fill="black"/>
<path d="M128.1 2.80333C128.1 3.32827 128.278 3.76921 128.635 4.12617C128.992 4.48313 129.433 4.6616 129.958 4.6616H130.21C130.714 4.6616 131.145 4.84008 131.502 5.19703C131.858 5.55399 132.037 5.98444 132.037 6.48837V17.512C132.037 18.0159 131.858 18.4464 131.502 18.8033C131.145 19.1603 130.714 19.3388 130.21 19.3388H129.958C129.433 19.3388 128.992 19.5172 128.635 19.8742C128.278 20.2312 128.1 20.6721 128.1 21.197C128.1 21.701 127.921 22.1314 127.565 22.4884C127.208 22.8453 126.777 23.0238 126.273 23.0238H116.131C115.628 23.0238 115.197 22.8453 114.84 22.4884C114.483 22.1314 114.305 21.701 114.305 21.197V2.80333C114.305 2.2994 114.483 1.86895 114.84 1.512C115.197 1.15504 115.628 0.976562 116.131 0.976562H126.273C126.777 0.976562 127.208 1.15504 127.565 1.512C127.921 1.86895 128.1 2.2994 128.1 2.80333ZM126.273 15.6852C126.777 15.6852 127.208 15.5067 127.565 15.1498C127.921 14.7928 128.1 14.3519 128.1 13.827V10.1734C128.1 9.64848 127.921 9.20753 127.565 8.85058C127.208 8.49362 126.777 8.31515 126.273 8.31515H125.99C125.486 8.31515 125.055 8.13667 124.698 7.77971C124.341 7.42276 124.163 6.99231 124.163 6.48837C124.163 5.98444 123.984 5.55399 123.628 5.19703C123.271 4.84008 122.84 4.6616 122.336 4.6616H120.1C119.575 4.6616 119.134 4.84008 118.777 5.19703C118.42 5.55399 118.242 5.98444 118.242 6.48837V17.512C118.242 18.0159 118.42 18.4464 118.777 18.8033C119.134 19.1603 119.575 19.3388 120.1 19.3388H122.336C122.84 19.3388 123.271 19.1603 123.628 18.8033C123.984 18.4464 124.163 18.0159 124.163 17.512C124.163 17.0081 124.341 16.5776 124.698 16.2207C125.055 15.8637 125.486 15.6852 125.99 15.6852H126.273Z" fill="black"/>
</svg>
