<svg width="33" height="44" viewBox="0 0 33 44" fill="none" xmlns="http://www.w3.org/2000/svg">
<path d="M13.7596 40.2103C24.052 38.5193 31.0248 28.8048 29.3338 18.5124C27.6429 8.22006 17.9284 1.24724 7.63602 2.93821C-2.65637 4.62919 -9.62919 14.3436 -7.93821 24.636C-6.24724 34.9284 3.4672 41.9012 13.7596 40.2103Z" fill="white"/>
<path d="M10.4594 11.5164H4.58644V20.6106H2.17572V22.8366H4.58644V31.9308H11.4289C11.4289 31.9308 21.0462 32.7361 21.0462 21.8929C21.0462 11.2241 11.8443 11.5164 10.4594 11.5164ZM11.2699 28.1557H8.4385V22.8315H12.6753V20.6054H8.42823V15.2864H11.1365C12.1623 15.2864 17.2249 15.6916 17.2352 21.9544C17.2454 28.2172 11.9982 28.1505 11.2699 28.1505V28.1557Z" fill="black"/>
</svg>
