<svg width="41" height="41" viewBox="0 0 41 41" fill="none" xmlns="http://www.w3.org/2000/svg">
<path fill-rule="evenodd" clip-rule="evenodd" d="M20.5 0C24.5547 1.49543e-07 28.5184 1.20245 31.8898 3.45526C35.2611 5.70808 37.8886 8.91006 39.44 12.6563C40.9915 16.4025 41.3971 20.5246 40.6057 24.5014C39.8142 28.4781 37.8613 32.1309 34.9937 34.9977C32.1262 37.8644 28.4729 39.8164 24.4959 40.6068C20.519 41.3971 16.3969 40.9904 12.6512 39.4379C8.90537 37.8855 5.70407 35.2571 3.45217 31.8851C1.20027 28.5132 -0.00110048 24.5492 7.56405e-07 20.4944C0.00442591 15.0594 2.16587 9.84825 6.00956 6.0056C9.85325 2.16295 15.0649 0.00294883 20.5 0V0Z" fill="black"/>
<path fill-rule="evenodd" clip-rule="evenodd" d="M16.9478 9.14209L13.7353 21.1681L11.1854 22.1648L10.2723 25.5888L12.8557 24.7147L11.1464 31.8135L29.6866 31.8524L30.8112 27.3037H19.5368L21.0011 21.8307L24.0466 20.539L24.9263 17.1984L21.9587 18.2006L24.2971 9.26458L16.9478 9.14209Z" fill="white"/>
</svg>
