<svg width="40" height="32" viewBox="0 0 40 32" fill="none" xmlns="http://www.w3.org/2000/svg">
<path d="M34.1548 0H39.9379L27.906 11.5091C25.7997 13.5083 22.9647 14.6285 20.0116 14.6285C17.0585 14.6285 14.2236 13.5083 12.1172 11.5091L0.0776215 0H5.84513L14.9893 8.73489C16.3181 10.0073 18.1134 10.7212 19.9845 10.7212C21.8556 10.7212 23.6509 10.0073 24.9796 8.73489L34.1548 0Z" fill="white"/>
<path d="M5.79082 31.9999H0L12.1095 20.4234C14.2139 18.4206 17.0496 17.2979 20.0039 17.2979C22.9582 17.2979 25.7939 18.4206 27.8983 20.4234L40 31.9999H34.217L25.0029 23.1901C23.6722 21.9213 21.8776 21.2098 20.0078 21.2098C18.1379 21.2098 16.3433 21.9213 15.0126 23.1901L5.79082 31.9999Z" fill="white"/>
</svg>
