<svg width="32" height="32" viewBox="0 0 32 32" fill="none" xmlns="http://www.w3.org/2000/svg">
<rect x="0.5" y="0.5" width="31" height="31" rx="3.5" fill="white"/>
<path d="M27.9593 5.77523L23.5883 24.8682C23.3827 25.7674 22.4313 26.2307 21.6514 25.8037L16.1231 22.7791L13.5091 27.3115C12.7979 28.5469 10.9981 28.0111 10.9981 26.5666V21.5163C10.9981 21.1258 11.1523 20.7533 11.418 20.4808L22.1914 9.58095C22.1828 9.4447 22.0456 9.3267 21.9086 9.42645L9.05285 18.9094L4.73337 16.5477C3.72214 15.9936 3.765 14.4403 4.81046 13.959L26.1084 4.1221C27.1283 3.64969 28.2254 4.62168 27.9597 5.77515L27.9593 5.77523Z" fill="#1F1F1F"/>
<rect x="0.5" y="0.5" width="31" height="31" rx="3.5" stroke="#1F1F1F"/>
</svg>
