<svg width="49" height="48" viewBox="0 0 49 48" fill="none" xmlns="http://www.w3.org/2000/svg">
<path fill-rule="evenodd" clip-rule="evenodd" d="M24.5 48C11.2452 48 0.5 37.2548 0.5 24C0.5 10.7452 11.2452 0 24.5 0C37.7548 0 48.5 10.7452 48.5 24C48.5 37.2548 37.7548 48 24.5 48ZM25.5378 18.0111C23.3883 18.9051 19.0923 20.7556 12.6499 23.5624C11.6037 23.9785 11.0557 24.3854 11.0058 24.7834C10.9215 25.456 11.7637 25.7208 12.9106 26.0814C13.0666 26.1305 13.2283 26.1813 13.394 26.2352C14.5223 26.602 16.0402 27.0311 16.8292 27.0481C17.545 27.0636 18.3439 26.7685 19.2258 26.1628C25.2452 22.0996 28.3524 20.0458 28.5475 20.0016C28.6851 19.9703 28.8759 19.9311 29.0051 20.0459C29.1343 20.1608 29.1216 20.3783 29.1079 20.4366C29.0245 20.7923 25.7184 23.8659 24.0076 25.4565C23.4742 25.9523 23.0959 26.3041 23.0185 26.3844C22.8453 26.5643 22.6687 26.7345 22.499 26.8981C21.4507 27.9087 20.6646 28.6665 22.5425 29.904C23.445 30.4987 24.1671 30.9905 24.8876 31.4811C25.6743 32.0169 26.4591 32.5513 27.4744 33.2169C27.7331 33.3864 27.9801 33.5626 28.2208 33.7341C29.1364 34.3869 29.959 34.9733 30.9753 34.8798C31.5658 34.8254 32.1758 34.2702 32.4856 32.6141C33.2177 28.7002 34.6567 20.2201 34.9893 16.7257C35.0185 16.4195 34.9818 16.0277 34.9524 15.8557C34.9229 15.6837 34.8614 15.4386 34.6379 15.2572C34.3731 15.0424 33.9643 14.9971 33.7815 15.0001C32.9503 15.0149 31.675 15.4584 25.5378 18.0111Z" fill="#1F1F1F"/>
</svg>
