<svg width="48" height="48" viewBox="0 0 48 48" fill="none" xmlns="http://www.w3.org/2000/svg">
<path d="M28.8322 16.1399V9.72594H42.2872V0H5.70201V9.72594H19.157V16.1166C8.2255 16.6531 0 19.0087 0 21.8309C0 24.6531 8.2255 26.9971 19.157 27.5452V48H28.8859V27.5685C39.796 27.0204 48 24.6647 48 21.8542C48 19.0437 39.796 16.688 28.8859 16.1399M28.8859 25.8309C28.6067 25.8309 27.2 25.9358 24.0537 25.9358C21.5517 25.9358 19.7584 25.8542 19.157 25.8192C9.49261 25.3527 2.28725 23.4869 2.28725 21.3411C2.28725 19.1953 9.50335 17.3294 19.157 16.863V24C19.7906 24 21.6054 24.1633 24.0966 24.1633C27.0926 24.1633 28.6067 24.0233 28.8859 24V16.863C38.5503 17.3294 45.7127 19.1953 45.7127 21.3411C45.7127 23.4869 38.5181 25.3527 28.8859 25.8192" fill="#1F1F1F"/>
</svg>
