<svg width="49" height="48" viewBox="0 0 49 48" fill="none" xmlns="http://www.w3.org/2000/svg">
<rect x="0.5" width="48" height="48" rx="24" fill="white"/>
<path d="M35.8044 16.4846C35.3582 14.8432 34.4756 13.5438 33.1807 12.6247C31.5465 11.4636 29.6668 11.0519 28.0434 10.8021C25.7972 10.4567 23.7626 10.4084 21.825 10.6525C20.0075 10.882 18.6395 11.2488 17.3903 11.8405C14.9434 12.9993 13.4749 14.8758 13.0266 17.4161C12.8084 18.6491 12.6622 19.764 12.5771 20.8272C12.3807 23.2854 12.5585 25.4611 13.1215 27.4772C13.6691 29.4426 14.627 30.8477 16.0496 31.7703C16.4129 32.0054 16.8754 32.1753 17.3249 32.3395C17.5496 32.4217 17.7656 32.5027 17.9544 32.5882V36.5595C17.9544 37.0792 18.3624 37.5 18.8664 37.5C19.1042 37.5 19.3322 37.4044 19.5024 37.2334L23.0556 33.6693C23.2105 33.487 23.2105 33.487 23.3698 33.4837C24.584 33.4589 25.8244 33.4105 27.0572 33.3419C28.5507 33.2575 30.281 33.109 31.9108 32.4082C33.4022 31.7658 34.4909 30.7465 35.1444 29.3796C35.8262 27.9531 36.2321 26.4073 36.3837 24.6556C36.6499 21.5753 36.4601 18.9023 35.8044 16.4846ZM29.6177 28.2073C29.2609 28.8092 28.7264 29.2255 28.098 29.4955C27.6387 29.6935 27.1696 29.6518 26.7168 29.4538C22.916 27.7956 19.9366 25.181 17.9664 21.4246C17.5605 20.6506 17.278 19.8079 16.954 18.99C16.8874 18.8213 16.8929 18.6244 16.8634 18.441C16.8918 17.1191 17.8747 16.3755 18.8675 16.1505C19.2471 16.0638 19.5831 16.2022 19.8646 16.4801C20.6435 17.2474 21.2599 18.1361 21.7236 19.1329C21.9265 19.5705 21.8349 19.9575 21.489 20.2827C21.4181 20.3502 21.3428 20.4132 21.2654 20.4728C20.4766 21.0848 20.361 21.5472 20.781 22.4686C21.4967 24.0357 22.6847 25.0876 24.2218 25.7402C24.6266 25.9123 25.0084 25.8268 25.3182 25.4881C25.3597 25.4431 25.4066 25.3993 25.4372 25.3475C26.0437 24.3046 26.9219 24.4081 27.7336 25.0033C28.2671 25.3936 28.7842 25.8054 29.3122 26.2037C30.1129 26.8123 30.1064 27.3838 29.6177 28.2073ZM25.0575 17.4105C24.8535 17.4105 24.6484 17.4274 24.4477 17.4622C24.1073 17.5219 23.7866 17.2845 23.7298 16.9335C23.6731 16.5836 23.9022 16.2517 24.2426 16.1932C24.5099 16.1482 24.7848 16.1246 25.0575 16.1246C27.7576 16.1246 29.9548 18.3904 29.9548 21.1748C29.9548 21.4572 29.9319 21.7407 29.8871 22.0163C29.8358 22.3302 29.5718 22.553 29.2729 22.553C29.2391 22.553 29.2042 22.5507 29.1693 22.544C28.83 22.4843 28.6009 22.1536 28.6576 21.8037C28.6915 21.5989 28.7078 21.3874 28.7078 21.1759C28.7078 19.0991 27.0703 17.4105 25.0575 17.4105ZM27.7729 21.5888C27.7729 21.9432 27.4936 22.2312 27.1499 22.2312C26.8063 22.2312 26.527 21.9432 26.527 21.5888C26.527 20.5257 25.6881 19.6605 24.6571 19.6605C24.3135 19.6605 24.0342 19.3725 24.0342 19.0181C24.0342 18.6638 24.3135 18.3758 24.6571 18.3758C26.3743 18.3746 27.7729 19.8169 27.7729 21.5888ZM31.9686 22.373C31.9032 22.6722 31.6468 22.8736 31.361 22.8736C31.3152 22.8736 31.2683 22.868 31.2224 22.8578C30.8864 22.7791 30.6759 22.4348 30.7522 22.0895C30.8428 21.6788 30.8886 21.2547 30.8886 20.8294C30.8886 17.7041 28.4231 15.1605 25.3913 15.1605C24.9779 15.1605 24.5677 15.2077 24.1695 15.3011C23.8356 15.381 23.4996 15.1627 23.4244 14.8162C23.348 14.4697 23.5585 14.1254 23.8946 14.0478C24.3833 13.9319 24.8873 13.8746 25.3935 13.8746C29.1115 13.8746 32.1367 16.9942 32.1367 20.8283C32.1367 21.3503 32.0799 21.8701 31.9686 22.373Z" fill="#1F1F1F"/>
</svg>
