<svg width="49" height="48" viewBox="0 0 49 48" fill="none" xmlns="http://www.w3.org/2000/svg">
<path fill-rule="evenodd" clip-rule="evenodd" d="M19.4 32.55C20.9 33.45 22.7 33.9 24.5 33.9C30.05 33.9 34.4 29.4 34.4 24.15C34.4 21.45 33.5 19.05 31.55 17.1C29.6 15.3 27.2 14.25 24.5 14.25C19.1 14.25 14.6 18.75 14.6 24.15C14.6 25.95 15.05 27.75 16.1 29.4L16.4 29.85L15.35 33.45L19.1 32.4L19.4 32.55ZM27.8 25.5C28.1 25.5 29.6 26.25 29.9 26.4C29.9467 26.4234 29.9934 26.4431 30.0396 26.4626C30.2898 26.5682 30.5234 26.6668 30.65 27.3C30.8 27.3 30.8 27.9 30.5 28.65C30.35 29.25 29.15 30 28.55 30C28.4484 30 28.351 30.0086 28.247 30.0178C27.7372 30.0629 27.068 30.1221 24.95 29.25C22.3213 28.1985 20.4988 25.6499 19.987 24.9342C19.9147 24.8331 19.8686 24.7686 19.85 24.75C19.8244 24.6989 19.7728 24.6174 19.7047 24.5099C19.3729 23.9859 18.65 22.8446 18.65 21.6C18.65 20.1 19.4 19.35 19.7 19.05C20 18.75 20.3 18.75 20.45 18.75H21.05C21.2 18.75 21.5 18.75 21.65 19.2C21.95 19.8 22.55 21.3 22.55 21.45C22.55 21.5 22.5667 21.55 22.5833 21.6C22.6167 21.7 22.65 21.8 22.55 21.9C22.475 21.975 22.4375 22.05 22.4 22.125C22.3625 22.2 22.325 22.275 22.25 22.35L21.8 22.8C21.65 22.95 21.5 23.1 21.65 23.4C21.8 23.7 22.4 24.75 23.3 25.5C24.3127 26.3861 25.1117 26.738 25.5168 26.9165C25.5917 26.9495 25.6532 26.9766 25.7 27C26 27 26.15 27 26.3 26.85C26.375 26.7 26.5625 26.475 26.75 26.25C26.9375 26.025 27.125 25.8 27.2 25.65C27.35 25.35 27.5 25.35 27.8 25.5Z" fill="white"/>
<path fill-rule="evenodd" clip-rule="evenodd" d="M0.5 24C0.5 10.7452 11.2452 0 24.5 0C37.7548 0 48.5 10.7452 48.5 24C48.5 37.2548 37.7548 48 24.5 48C11.2452 48 0.5 37.2548 0.5 24ZM24.5 12C27.65 12 30.65 13.2 32.9 15.45C35.15 17.7 36.5 20.7 36.5 23.85C36.5 30.45 31.1 35.85 24.5 35.85C22.55 35.85 20.6 35.25 18.8 34.35L12.5 36L14.15 30C13.1 28.2 12.5 26.1 12.5 24C12.5 17.4 17.9 12 24.5 12Z" fill="white"/>
</svg>
